<?xml version="1.0" encoding="utf-8"?>
<!-- Generator: Adobe Illustrator 15.1.0, SVG Export Plug-In . SVG Version: 6.00 Build 0)  -->
<!DOCTYPE svg PUBLIC "-//W3C//DTD SVG 1.1//EN" "http://www.w3.org/Graphics/SVG/1.1/DTD/svg11.dtd">
<svg version="1.1" id="Layer_1" xmlns="http://www.w3.org/2000/svg" xmlns:xlink="http://www.w3.org/1999/xlink" x="0px" y="0px"
	 width="474.5px" height="361.5px" viewBox="0 0 474.5 361.5" enable-background="new 0 0 474.5 361.5" xml:space="preserve">
<line fill="none" stroke="#C8C8C8" stroke-width="0.43" stroke-linejoin="round" stroke-miterlimit="10" x1="423.91" y1="344.17" x2="423.91" y2="13"/>
<text transform="matrix(1 0 0 1 414.3125 209.3398)" fill="none" stroke="#FFFFFF" stroke-width="10" stroke-miterlimit="10" font-family="'Helvetica'" font-size="8">National Average</text>
<line fill="none" stroke="#C8C8C8" stroke-width="0.43" stroke-linejoin="round" stroke-miterlimit="10" x1="73.13" y1="344.17" x2="73.13" y2="13"/>
<line fill="none" stroke="#FAFAFA" stroke-width="1.07" stroke-linejoin="round" stroke-miterlimit="10" x1="160.83" y1="344.17" x2="160.83" y2="13"/>
<line fill="none" stroke="#FAFAFA" stroke-width="1.07" stroke-linejoin="round" stroke-miterlimit="10" x1="336.21" y1="344.17" x2="336.21" y2="13"/>
<line fill="none" stroke="#C8C8C8" stroke-width="0.43" stroke-linejoin="round" stroke-miterlimit="10" x1="248.52" y1="344.17" x2="248.52" y2="13"/>
<line fill="none" stroke="#C8C8C8" stroke-width="0.43" stroke-linejoin="round" stroke-miterlimit="10" x1="65.375" y1="326.3" x2="432.27" y2="326.3"/>
<text transform="matrix(1 0 0 1 130.5371 332.5313)" fill="#646464" stroke="#FFFFFF" stroke-width="10" stroke-miterlimit="10" font-family="'Helvetica'" font-size="18">Democrat</text>
<text transform="matrix(1 0 0 1 283.877 332.5313)" fill="#646464" stroke="#FFFFFF" stroke-width="10" stroke-miterlimit="10" font-family="'Helvetica'" font-size="18">Republican</text>
<g>
	<g>
		<path fill="#FFFFFF" d="M95.329,326.248c14.199,5.269,31.816,14.258,42.737,23.779l-8.601-23.779l8.601-23.774
			C127.146,311.995,109.528,320.984,95.329,326.248z"/>
	</g>
</g>
<g>
	<g>
		<path fill="#FFFFFF" d="M403.031,326.248c-14.199-5.269-31.816-14.258-42.736-23.779l8.601,23.779l-8.601,23.774
			C371.215,340.501,388.832,331.512,403.031,326.248z"/>
	</g>
</g>
<line fill="none" stroke="#000000" stroke-width="1.07" stroke-linejoin="round" stroke-miterlimit="10" x1="65.375" y1="224.17" x2="432.27" y2="224.17"/>
<line fill="none" stroke="#FAFAFA" stroke-width="1.07" stroke-linejoin="round" stroke-miterlimit="10" x1="65.375" y1="275.24" x2="432.27" y2="275.24"/>
<line fill="none" stroke="#FAFAFA" stroke-width="1.07" stroke-linejoin="round" stroke-miterlimit="10" x1="65.375" y1="173.11" x2="432.27" y2="173.11"/>
<line fill="none" stroke="#FAFAFA" stroke-width="1.07" stroke-linejoin="round" stroke-miterlimit="10" x1="65.375" y1="70.98" x2="432.27" y2="70.98"/>
<line fill="none" stroke="#C8C8C8" stroke-width="0.43" stroke-linejoin="round" stroke-miterlimit="10" x1="65.375" y1="122.04" x2="432.27" y2="122.04"/>
<line fill="none" stroke="#C8C8C8" stroke-width="0.43" stroke-linejoin="round" stroke-miterlimit="10" x1="65.375" y1="19.91" x2="432.27" y2="19.91"/>
<text transform="matrix(1 0 0 1 286.4004 82.29)" fill="none" stroke="#FFFFFF" stroke-width="8" stroke-miterlimit="10" font-family="'Helvetica'" font-size="11">AK</text>
<text transform="matrix(1 0 0 1 348.2002 222.5898)" fill="none" stroke="#FFFFFF" stroke-width="8" stroke-miterlimit="10" font-family="'Helvetica'" font-size="11">AL</text>
<text transform="matrix(1 0 0 1 344.3799 197.9199)" fill="none" stroke="#FFFFFF" stroke-width="8" stroke-miterlimit="10" font-family="'Helvetica'" font-size="11">AR</text>
<text transform="matrix(1 0 0 1 256.6396 214.8301)" fill="none" stroke="#FFFFFF" stroke-width="8" stroke-miterlimit="10" font-family="'Helvetica'" font-size="11">AZ</text>
<text transform="matrix(1 0 0 1 131.23 218.0801)" fill="none" stroke="#FFFFFF" stroke-width="8" stroke-miterlimit="10" font-family="'Helvetica'" font-size="11">CA</text>
<text transform="matrix(1 0 0 1 225.75 262.2305)" fill="none" stroke="#FFFFFF" stroke-width="8" stroke-miterlimit="10" font-family="'Helvetica'" font-size="11">CO</text>
<text transform="matrix(1 0 0 1 194.6396 210)" fill="none" stroke="#FFFFFF" stroke-width="8" stroke-miterlimit="10" font-family="'Helvetica'" font-size="11">CT</text>
<text transform="matrix(1 0 0 1 77.0898 99.8999)" fill="none" stroke="#FFFFFF" stroke-width="8" stroke-miterlimit="10" font-family="'Helvetica'" font-size="11">DC</text>
<text transform="matrix(1 0 0 1 193.79 141.0801)" fill="none" stroke="#FFFFFF" stroke-width="8" stroke-miterlimit="10" font-family="'Helvetica'" font-size="11">DE</text>
<text transform="matrix(1 0 0 1 258.2041 277.1631)" fill="none" stroke="#FFFFFF" stroke-width="8" stroke-miterlimit="10" font-family="'Helvetica'" font-size="11">FL</text>
<text transform="matrix(1 0 0 1 263.7197 231.1699)" fill="none" stroke="#FFFFFF" stroke-width="8" stroke-miterlimit="10" font-family="'Helvetica'" font-size="11">RGA</text>
<text transform="matrix(1 0 0 1 125.3901 103.9502)" fill="none" stroke="#FFFFFF" stroke-width="8" stroke-miterlimit="10" font-family="'Helvetica'" font-size="11">HI</text>
<text transform="matrix(1 0 0 1 286.6504 225.0303)" fill="none" stroke="#FFFFFF" stroke-width="8" stroke-miterlimit="10" font-family="'Helvetica'" font-size="11">IA</text>
<text transform="matrix(1 0 0 1 355.7803 161.3701)" fill="none" stroke="#FFFFFF" stroke-width="8" stroke-miterlimit="10" font-family="'Helvetica'" font-size="11">ID</text>
<text transform="matrix(1 0 0 1 188.8096 242.8203)" fill="none" stroke="#FFFFFF" stroke-width="8" stroke-miterlimit="10" font-family="'Helvetica'" font-size="11">IL</text>
<text transform="matrix(1 0 0 1 317.2598 227.71)" fill="none" stroke="#FFFFFF" stroke-width="8" stroke-miterlimit="10" font-family="'Helvetica'" font-size="11">IN</text>
<text transform="matrix(1 0 0 1 308.1602 205.5703)" fill="none" stroke="#FFFFFF" stroke-width="8" stroke-miterlimit="10" font-family="'Helvetica'" font-size="11">KS</text>
<text transform="matrix(1 0 0 1 354.8896 242.2998)" fill="none" stroke="#FFFFFF" stroke-width="8" stroke-miterlimit="10" font-family="'Helvetica'" font-size="11">KY</text>
<text transform="matrix(1 0 0 1 320.4004 239.6396)" fill="none" stroke="#FFFFFF" stroke-width="8" stroke-miterlimit="10" font-family="'Helvetica'" font-size="11">LA</text>
<text transform="matrix(1 0 0 1 134.5898 238.8496)" fill="none" stroke="#FFFFFF" stroke-width="8" stroke-miterlimit="10" font-family="'Helvetica'" font-size="11">MA</text>
<text transform="matrix(1 0 0 1 156.29 247.1396)" fill="none" stroke="#FFFFFF" stroke-width="8" stroke-miterlimit="10" font-family="'Helvetica'" font-size="11">MD</text>
<text transform="matrix(1 0 0 1 221.8301 195.1396)" fill="none" stroke="#FFFFFF" stroke-width="8" stroke-miterlimit="10" font-family="'Helvetica'" font-size="11">ME</text>
<text transform="matrix(1 0 0 1 240.8496 253.8828)" fill="none" stroke="#FFFFFF" stroke-width="8" stroke-miterlimit="10" font-family="'Helvetica'" font-size="11">MI</text>
<text transform="matrix(1 0 0 1 234.8496 227.71)" fill="none" stroke="#FFFFFF" stroke-width="8" stroke-miterlimit="10" font-family="'Helvetica'" font-size="11">MN</text>
<text transform="matrix(1 0 0 1 307.4502 252.7598)" fill="none" stroke="#FFFFFF" stroke-width="8" stroke-miterlimit="10" font-family="'Helvetica'" font-size="11">MO</text>
<text transform="matrix(1 0 0 1 302.4404 223.79)" fill="none" stroke="#FFFFFF" stroke-width="8" stroke-miterlimit="10" font-family="'Helvetica'" font-size="11">MS</text>
<text transform="matrix(1 0 0 1 313.6602 162.25)" fill="none" stroke="#FFFFFF" stroke-width="8" stroke-miterlimit="10" font-family="'Helvetica'" font-size="11">MT</text>
<text transform="matrix(1 0 0 1 259.7998 252.5498)" fill="none" stroke="#FFFFFF" stroke-width="8" stroke-miterlimit="10" font-family="'Helvetica'" font-size="11">NC</text>
<text transform="matrix(1 0 0 1 357.8398 101.2202)" fill="none" stroke="#FFFFFF" stroke-width="8" stroke-miterlimit="10" font-family="'Helvetica'" font-size="11">ND</text>
<text transform="matrix(1 0 0 1 335.4502 167.6797)" fill="none" stroke="#FFFFFF" stroke-width="8" stroke-miterlimit="10" font-family="'Helvetica'" font-size="11">NE</text>
<text transform="matrix(1 0 0 1 250.2803 172.7002)" fill="none" stroke="#FFFFFF" stroke-width="8" stroke-miterlimit="10" font-family="'Helvetica'" font-size="11">NH</text>
<text transform="matrix(1 0 0 1 199.1104 226.8398)" fill="none" stroke="#FFFFFF" stroke-width="8" stroke-miterlimit="10" font-family="'Helvetica'" font-size="11">NJ</text>
<text transform="matrix(1 0 0 1 201.1699 178.4199)" fill="none" stroke="#FFFFFF" stroke-width="8" stroke-miterlimit="10" font-family="'Helvetica'" font-size="11">NM</text>
<text transform="matrix(1 0 0 1 226.5996 176.4199)" fill="none" stroke="#FFFFFF" stroke-width="8" stroke-miterlimit="10" font-family="'Helvetica'" font-size="11">NV</text>
<text transform="matrix(1 0 0 1 167.04 226.3701)" fill="none" stroke="#FFFFFF" stroke-width="8" stroke-miterlimit="10" font-family="'Helvetica'" font-size="11">NY</text>
<text transform="matrix(1 0 0 1 278.2598 250.3799)" fill="none" stroke="#FFFFFF" stroke-width="8" stroke-miterlimit="10" font-family="'Helvetica'" font-size="11">OH</text>
<text transform="matrix(1 0 0 1 376.2598 209.3398)" fill="none" stroke="#FFFFFF" stroke-width="8" stroke-miterlimit="10" font-family="'Helvetica'" font-size="11">OK</text>
<text transform="matrix(1 0 0 1 204.79 242.1699)" fill="none" stroke="#FFFFFF" stroke-width="8" stroke-miterlimit="10" font-family="'Helvetica'" font-size="11">OR</text>
<text transform="matrix(1 0 0 1 269.0244 273.0332)"><tspan x="0" y="0" fill="none" stroke="#FFFFFF" stroke-width="8" stroke-miterlimit="10" font-family="'Helvetica'" font-size="11" letter-spacing="-1">P</tspan><tspan x="4.532" y="0" fill="none" stroke="#FFFFFF" stroke-width="8" stroke-miterlimit="10" font-family="'Helvetica'" font-size="11">A</tspan></text>
<text transform="matrix(1 0 0 1 187.6104 102.1299)" fill="none" stroke="#FFFFFF" stroke-width="8" stroke-miterlimit="10" font-family="'Helvetica'" font-size="11">RI</text>
<text transform="matrix(1 0 0 1 292.6602 237.4404)" fill="none" stroke="#FFFFFF" stroke-width="8" stroke-miterlimit="10" font-family="'Helvetica'" font-size="11">SC</text>
<text transform="matrix(1 0 0 1 338.3799 122.3501)" fill="none" stroke="#FFFFFF" stroke-width="8" stroke-miterlimit="10" font-family="'Helvetica'" font-size="11">SD</text>
<text transform="matrix(1 0 0 1 330.9502 227.1201)" fill="none" stroke="#FFFFFF" stroke-width="8" stroke-miterlimit="10" font-family="'Helvetica'" font-size="11">TN</text>
<text transform="matrix(1 0 0 1 272.4502 220.1396)" fill="none" stroke="#FFFFFF" stroke-width="8" stroke-miterlimit="10" font-family="'Helvetica'" font-size="11">TX</text>
<text transform="matrix(1 0 0 1 299.7998 182.1797)" fill="none" stroke="#FFFFFF" stroke-width="8" stroke-miterlimit="10" font-family="'Helvetica'" font-size="11">UT</text>
<text transform="matrix(1 0 0 1 222.75 247.8398)"><tspan x="0" y="0" fill="none" stroke="#FFFFFF" stroke-width="8" stroke-miterlimit="10" font-family="'Helvetica'" font-size="11">V</tspan><tspan x="5.258" y="0" fill="none" stroke="#FFFFFF" stroke-width="8" stroke-miterlimit="10" font-family="'Helvetica'" font-size="11">A</tspan></text>
<text transform="matrix(1 0 0 1 135.5898 74.3701)" fill="none" stroke="#FFFFFF" stroke-width="8" stroke-miterlimit="10" font-family="'Helvetica'" font-size="11">VT</text>
<text transform="matrix(1 0 0 1 179.9004 224.5498)"><tspan x="0" y="0" fill="none" stroke="#FFFFFF" stroke-width="8" stroke-miterlimit="10" font-family="'Helvetica'" font-size="11">W</tspan><tspan x="8.756" y="0" fill="none" stroke="#FFFFFF" stroke-width="8" stroke-miterlimit="10" font-family="'Helvetica'" font-size="11">A</tspan></text>
<text transform="matrix(1 0 0 1 255.8936 266.0703)" fill="none" stroke="#FFFFFF" stroke-width="8" stroke-miterlimit="10" font-family="'Helvetica'" font-size="11">WI</text>
<text transform="matrix(1 0 0 1 396.6201 172.6504)" fill="none" stroke="#FFFFFF" stroke-width="8" stroke-miterlimit="10" font-family="'Helvetica'" font-size="11">WV</text>
<path d="M299.78,85.34c0-1.07,0.88-1.95,1.95-1.95c1.079,0,1.96,0.88,1.96,1.95c0,1.08-0.881,1.96-1.96,1.96
	C300.66,87.3,299.78,86.42,299.78,85.34"/>
<path fill="none" stroke="#000000" stroke-width="0.71" stroke-linecap="round" stroke-linejoin="round" stroke-miterlimit="10" d="
	M299.78,85.34c0-1.07,0.88-1.95,1.95-1.95c1.079,0,1.96,0.88,1.96,1.95c0,1.08-0.881,1.96-1.96,1.96
	C300.66,87.3,299.78,86.42,299.78,85.34"/>
<path d="M345.98,223.64c0-1.069,0.869-1.949,1.949-1.949s1.95,0.88,1.95,1.949c0,1.08-0.87,1.96-1.95,1.96
	S345.98,224.72,345.98,223.64"/>
<path fill="none" stroke="#000000" stroke-width="0.71" stroke-linecap="round" stroke-linejoin="round" stroke-miterlimit="10" d="
	M345.98,223.64c0-1.069,0.869-1.949,1.949-1.949s1.95,0.88,1.95,1.949c0,1.08-0.87,1.96-1.95,1.96S345.98,224.72,345.98,223.64"/>
<path d="M341.06,200.97c0-1.069,0.881-1.95,1.96-1.95c1.07,0,1.95,0.881,1.95,1.95c0,1.08-0.88,1.96-1.95,1.96
	C341.94,202.93,341.06,202.05,341.06,200.97"/>
<path fill="none" stroke="#000000" stroke-width="0.71" stroke-linecap="round" stroke-linejoin="round" stroke-miterlimit="10" d="
	M341.06,200.97c0-1.069,0.881-1.95,1.96-1.95c1.07,0,1.95,0.881,1.95,1.95c0,1.08-0.88,1.96-1.95,1.96
	C341.94,202.93,341.06,202.05,341.06,200.97"/>
<path d="M261.72,217.88c0-1.07,0.88-1.95,1.95-1.95c1.08,0,1.96,0.88,1.96,1.95c0,1.08-0.88,1.96-1.96,1.96
	C262.6,219.84,261.72,218.96,261.72,217.88"/>
<path fill="none" stroke="#000000" stroke-width="0.71" stroke-linecap="round" stroke-linejoin="round" stroke-miterlimit="10" d="
	M261.72,217.88c0-1.07,0.88-1.95,1.95-1.95c1.08,0,1.96,0.88,1.96,1.95c0,1.08-0.88,1.96-1.96,1.96
	C262.6,219.84,261.72,218.96,261.72,217.88"/>
<path d="M144.91,221.13c0-1.08,0.88-1.96,1.96-1.96c1.07,0,1.95,0.88,1.95,1.96c0,1.07-0.88,1.95-1.95,1.95
	C145.79,223.08,144.91,222.2,144.91,221.13"/>
<path fill="none" stroke="#000000" stroke-width="0.71" stroke-linecap="round" stroke-linejoin="round" stroke-miterlimit="10" d="
	M144.91,221.13c0-1.08,0.88-1.96,1.96-1.96c1.07,0,1.95,0.88,1.95,1.96c0,1.07-0.88,1.95-1.95,1.95
	C145.79,223.08,144.91,222.2,144.91,221.13"/>
<path d="M204.02,213.05c0-1.08,0.881-1.96,1.95-1.96c1.08,0,1.96,0.88,1.96,1.96c0,1.07-0.88,1.95-1.96,1.95
	C204.9,215,204.02,214.12,204.02,213.05"/>
<path fill="none" stroke="#000000" stroke-width="0.71" stroke-linecap="round" stroke-linejoin="round" stroke-miterlimit="10" d="
	M204.02,213.05c0-1.08,0.881-1.96,1.95-1.96c1.08,0,1.96,0.88,1.96,1.96c0,1.07-0.88,1.95-1.96,1.95
	C204.9,215,204.02,214.12,204.02,213.05"/>
<path d="M71.172,96.95c0-1.08,0.881-1.96,1.96-1.96c1.07,0,1.95,0.88,1.95,1.96c0,1.07-0.88,1.95-1.95,1.95
	C72.053,98.9,71.172,98.02,71.172,96.95"/>
<path fill="none" stroke="#000000" stroke-width="0.71" stroke-linecap="round" stroke-linejoin="round" stroke-miterlimit="10" d="
	M71.172,96.95c0-1.08,0.881-1.96,1.96-1.96c1.07,0,1.95,0.88,1.95,1.96c0,1.07-0.88,1.95-1.95,1.95
	C72.053,98.9,71.172,98.02,71.172,96.95"/>
<path d="M206.47,143.13c0-1.07,0.88-1.95,1.96-1.95c1.07,0,1.95,0.88,1.95,1.95c0,1.08-0.88,1.96-1.95,1.96
	C207.35,145.09,206.47,144.21,206.47,143.13"/>
<path fill="none" stroke="#000000" stroke-width="0.71" stroke-linecap="round" stroke-linejoin="round" stroke-miterlimit="10" d="
	M206.47,143.13c0-1.07,0.88-1.95,1.96-1.95c1.07,0,1.95,0.88,1.95,1.95c0,1.08-0.88,1.96-1.95,1.96
	C207.35,145.09,206.47,144.21,206.47,143.13"/>
<path d="M251.02,236.25c0-1.07,0.881-1.95,1.95-1.95c1.08,0,1.96,0.88,1.96,1.95c0,1.08-0.88,1.96-1.96,1.96
	C251.9,238.21,251.02,237.33,251.02,236.25"/>
<path fill="none" stroke="#000000" stroke-width="0.71" stroke-linecap="round" stroke-linejoin="round" stroke-miterlimit="10" d="
	M251.02,236.25c0-1.07,0.881-1.95,1.95-1.95c1.08,0,1.96,0.88,1.96,1.95c0,1.08-0.88,1.96-1.96,1.96
	C251.9,238.21,251.02,237.33,251.02,236.25"/>
<path d="M265.72,226.03c0-1.08,0.88-1.96,1.95-1.96c1.08,0,1.96,0.88,1.96,1.96c0,1.069-0.88,1.95-1.96,1.95
	C266.6,227.98,265.72,227.1,265.72,226.03"/>
<path fill="none" stroke="#000000" stroke-width="0.71" stroke-linecap="round" stroke-linejoin="round" stroke-miterlimit="10" d="
	M265.72,226.03c0-1.08,0.88-1.96,1.95-1.96c1.08,0,1.96,0.88,1.96,1.96c0,1.069-0.88,1.95-1.96,1.95
	C266.6,227.98,265.72,227.1,265.72,226.03"/>
<path d="M135.93,106c0-1.08,0.88-1.96,1.96-1.96c1.07,0,1.95,0.88,1.95,1.96c0,1.07-0.88,1.95-1.95,1.95
	C136.81,107.95,135.93,107.07,135.93,106"/>
<path fill="none" stroke="#000000" stroke-width="0.71" stroke-linecap="round" stroke-linejoin="round" stroke-miterlimit="10" d="
	M135.93,106c0-1.08,0.88-1.96,1.96-1.96c1.07,0,1.95,0.88,1.95,1.96c0,1.07-0.88,1.95-1.95,1.95
	C136.81,107.95,135.93,107.07,135.93,106"/>
<path d="M279.89,224.08c0-1.08,0.88-1.96,1.95-1.96c1.08,0,1.96,0.88,1.96,1.96c0,1.07-0.88,1.95-1.96,1.95
	C280.77,226.03,279.89,225.15,279.89,224.08"/>
<path fill="none" stroke="#000000" stroke-width="0.71" stroke-linecap="round" stroke-linejoin="round" stroke-miterlimit="10" d="
	M279.89,224.08c0-1.08,0.88-1.96,1.95-1.96c1.08,0,1.96,0.88,1.96,1.96c0,1.07-0.88,1.95-1.96,1.95
	C280.77,226.03,279.89,225.15,279.89,224.08"/>
<path d="M358.32,165.42c0-1.07,0.88-1.95,1.96-1.95c1.069,0,1.95,0.88,1.95,1.95c0,1.08-0.881,1.96-1.95,1.96
	C359.2,167.38,358.32,166.5,358.32,165.42"/>
<path fill="none" stroke="#000000" stroke-width="0.71" stroke-linecap="round" stroke-linejoin="round" stroke-miterlimit="10" d="
	M358.32,165.42c0-1.07,0.88-1.95,1.96-1.95c1.069,0,1.95,0.88,1.95,1.95c0,1.08-0.881,1.96-1.95,1.96
	C359.2,167.38,358.32,166.5,358.32,165.42"/>
<path d="M190.44,231.87c0-1.07,0.88-1.95,1.96-1.95c1.069,0,1.949,0.88,1.949,1.95c0,1.08-0.88,1.96-1.949,1.96
	C191.32,233.83,190.44,232.95,190.44,231.87"/>
<path fill="none" stroke="#000000" stroke-width="0.71" stroke-linecap="round" stroke-linejoin="round" stroke-miterlimit="10" d="
	M190.44,231.87c0-1.07,0.88-1.95,1.96-1.95c1.069,0,1.949,0.88,1.949,1.95c0,1.08-0.88,1.96-1.949,1.96
	C191.32,233.83,190.44,232.95,190.44,231.87"/>
<path d="M314.09,228.91c0-1.08,0.88-1.96,1.95-1.96c1.08,0,1.96,0.88,1.96,1.96c0,1.07-0.88,1.95-1.96,1.95
	C314.97,230.86,314.09,229.98,314.09,228.91"/>
<path fill="none" stroke="#000000" stroke-width="0.71" stroke-linecap="round" stroke-linejoin="round" stroke-miterlimit="10" d="
	M314.09,228.91c0-1.08,0.88-1.96,1.95-1.96c1.08,0,1.96,0.88,1.96,1.96c0,1.07-0.88,1.95-1.96,1.95
	C314.97,230.86,314.09,229.98,314.09,228.91"/>
<path d="M320.54,206.62c0-1.07,0.88-1.95,1.96-1.95c1.07,0,1.95,0.88,1.95,1.95c0,1.08-0.88,1.96-1.95,1.96
	C321.42,208.58,320.54,207.7,320.54,206.62"/>
<path fill="none" stroke="#000000" stroke-width="0.71" stroke-linecap="round" stroke-linejoin="round" stroke-miterlimit="10" d="
	M320.54,206.62c0-1.07,0.88-1.95,1.96-1.95c1.07,0,1.95,0.88,1.95,1.95c0,1.08-0.88,1.96-1.95,1.96
	C321.42,208.58,320.54,207.7,320.54,206.62"/>
<path d="M351.27,232.35c0-1.069,0.881-1.949,1.961-1.949c1.069,0,1.949,0.88,1.949,1.949c0,1.08-0.88,1.96-1.949,1.96
	C352.15,234.31,351.27,233.43,351.27,232.35"/>
<path fill="none" stroke="#000000" stroke-width="0.71" stroke-linecap="round" stroke-linejoin="round" stroke-miterlimit="10" d="
	M351.27,232.35c0-1.069,0.881-1.949,1.961-1.949c1.069,0,1.949,0.88,1.949,1.949c0,1.08-0.88,1.96-1.949,1.96
	C352.15,234.31,351.27,233.43,351.27,232.35"/>
<path d="M315.49,236.27c0-1.079,0.88-1.96,1.96-1.96c1.069,0,1.95,0.881,1.95,1.96c0,1.07-0.881,1.95-1.95,1.95
	C316.37,238.22,315.49,237.34,315.49,236.27"/>
<path fill="none" stroke="#000000" stroke-width="0.71" stroke-linecap="round" stroke-linejoin="round" stroke-miterlimit="10" d="
	M315.49,236.27c0-1.079,0.88-1.96,1.96-1.96c1.069,0,1.95,0.881,1.95,1.96c0,1.07-0.881,1.95-1.95,1.95
	C316.37,238.22,315.49,237.34,315.49,236.27"/>
<path d="M150.84,234.96c0-1.07,0.88-1.95,1.95-1.95c1.08,0,1.96,0.88,1.96,1.95c0,1.08-0.88,1.96-1.96,1.96
	C151.72,236.92,150.84,236.04,150.84,234.96"/>
<path fill="none" stroke="#000000" stroke-width="0.71" stroke-linecap="round" stroke-linejoin="round" stroke-miterlimit="10" d="
	M150.84,234.96c0-1.07,0.88-1.95,1.95-1.95c1.08,0,1.96,0.88,1.96,1.95c0,1.08-0.88,1.96-1.96,1.96
	C151.72,236.92,150.84,236.04,150.84,234.96"/>
<path d="M159.89,236.19c0-1.07,0.88-1.95,1.95-1.95c1.08,0,1.96,0.88,1.96,1.95c0,1.079-0.88,1.96-1.96,1.96
	C160.77,238.15,159.89,237.27,159.89,236.19"/>
<path fill="none" stroke="#000000" stroke-width="0.71" stroke-linecap="round" stroke-linejoin="round" stroke-miterlimit="10" d="
	M159.89,236.19c0-1.07,0.88-1.95,1.95-1.95c1.08,0,1.96,0.88,1.96,1.95c0,1.079-0.88,1.96-1.96,1.96
	C160.77,238.15,159.89,237.27,159.89,236.19"/>
<path d="M237.13,191.2c0-1.08,0.88-1.96,1.95-1.96c1.08,0,1.96,0.88,1.96,1.96c0,1.069-0.88,1.95-1.96,1.95
	C238.01,193.15,237.13,192.27,237.13,191.2"/>
<path fill="none" stroke="#000000" stroke-width="0.71" stroke-linecap="round" stroke-linejoin="round" stroke-miterlimit="10" d="
	M237.13,191.2c0-1.08,0.88-1.96,1.95-1.96c1.08,0,1.96,0.88,1.96,1.96c0,1.069-0.88,1.95-1.96,1.95
	C238.01,193.15,237.13,192.27,237.13,191.2"/>
<path d="M241.44,230.67c0-1.08,0.88-1.96,1.96-1.96c1.069,0,1.949,0.88,1.949,1.96c0,1.07-0.88,1.95-1.949,1.95
	C242.32,232.62,241.44,231.74,241.44,230.67"/>
<path fill="none" stroke="#000000" stroke-width="0.71" stroke-linecap="round" stroke-linejoin="round" stroke-miterlimit="10" d="
	M241.44,230.67c0-1.08,0.88-1.96,1.96-1.96c1.069,0,1.949,0.88,1.949,1.96c0,1.07-0.88,1.95-1.949,1.95
	C242.32,232.62,241.44,231.74,241.44,230.67"/>
<path d="M313.35,241.81c0-1.079,0.881-1.96,1.96-1.96c1.07,0,1.95,0.881,1.95,1.96c0,1.07-0.88,1.95-1.95,1.95
	C314.23,243.76,313.35,242.88,313.35,241.81"/>
<path fill="none" stroke="#000000" stroke-width="0.71" stroke-linecap="round" stroke-linejoin="round" stroke-miterlimit="10" d="
	M313.35,241.81c0-1.079,0.881-1.96,1.96-1.96c1.07,0,1.95,0.881,1.95,1.96c0,1.07-0.88,1.95-1.95,1.95
	C314.23,243.76,313.35,242.88,313.35,241.81"/>
<path d="M311.74,226.84c0-1.07,0.88-1.95,1.95-1.95c1.079,0,1.96,0.88,1.96,1.95c0,1.08-0.881,1.95-1.96,1.95
	C312.62,228.79,311.74,227.92,311.74,226.84"/>
<path fill="none" stroke="#000000" stroke-width="0.71" stroke-linecap="round" stroke-linejoin="round" stroke-miterlimit="10" d="
	M311.74,226.84c0-1.07,0.88-1.95,1.95-1.95c1.079,0,1.96,0.88,1.96,1.95c0,1.08-0.881,1.95-1.96,1.95
	C312.62,228.79,311.74,227.92,311.74,226.84"/>
<path d="M318.65,166.3c0-1.08,0.88-1.96,1.949-1.96c1.08,0,1.96,0.88,1.96,1.96c0,1.07-0.88,1.95-1.96,1.95
	C319.53,168.25,318.65,167.37,318.65,166.3"/>
<path fill="none" stroke="#000000" stroke-width="0.71" stroke-linecap="round" stroke-linejoin="round" stroke-miterlimit="10" d="
	M318.65,166.3c0-1.08,0.88-1.96,1.949-1.96c1.08,0,1.96,0.88,1.96,1.96c0,1.07-0.88,1.95-1.96,1.95
	C319.53,168.25,318.65,167.37,318.65,166.3"/>
<path d="M259.79,241.6c0-1.08,0.88-1.96,1.95-1.96c1.08,0,1.96,0.88,1.96,1.96c0,1.07-0.88,1.95-1.96,1.95
	C260.67,243.55,259.79,242.67,259.79,241.6"/>
<path fill="none" stroke="#000000" stroke-width="0.71" stroke-linecap="round" stroke-linejoin="round" stroke-miterlimit="10" d="
	M259.79,241.6c0-1.08,0.88-1.96,1.95-1.96c1.08,0,1.96,0.88,1.96,1.96c0,1.07-0.88,1.95-1.96,1.95
	C260.67,243.55,259.79,242.67,259.79,241.6"/>
<path d="M371.83,103.27c0-1.08,0.88-1.96,1.95-1.96c1.08,0,1.96,0.88,1.96,1.96c0,1.07-0.88,1.95-1.96,1.95
	C372.71,105.22,371.83,104.34,371.83,103.27"/>
<path fill="none" stroke="#000000" stroke-width="0.71" stroke-linecap="round" stroke-linejoin="round" stroke-miterlimit="10" d="
	M371.83,103.27c0-1.08,0.88-1.96,1.95-1.96c1.08,0,1.96,0.88,1.96,1.96c0,1.07-0.88,1.95-1.96,1.95
	C372.71,105.22,371.83,104.34,371.83,103.27"/>
<path d="M339.14,171.74c0-1.08,0.87-1.96,1.95-1.96s1.95,0.88,1.95,1.96c0,1.069-0.87,1.95-1.95,1.95S339.14,172.81,339.14,171.74"
	/>
<path fill="none" stroke="#000000" stroke-width="0.71" stroke-linecap="round" stroke-linejoin="round" stroke-miterlimit="10" d="
	M339.14,171.74c0-1.08,0.87-1.96,1.95-1.96s1.95,0.88,1.95,1.96c0,1.069-0.87,1.95-1.95,1.95S339.14,172.81,339.14,171.74"/>
<path d="M245.27,170.76c0-1.08,0.881-1.96,1.95-1.96c1.08,0,1.96,0.88,1.96,1.96c0,1.07-0.88,1.95-1.96,1.95
	C246.15,172.71,245.27,171.83,245.27,170.76"/>
<path fill="none" stroke="#000000" stroke-width="0.71" stroke-linecap="round" stroke-linejoin="round" stroke-miterlimit="10" d="
	M245.27,170.76c0-1.08,0.881-1.96,1.95-1.96c1.08,0,1.96,0.88,1.96,1.96c0,1.07-0.88,1.95-1.96,1.95
	C246.15,172.71,245.27,171.83,245.27,170.76"/>
<path d="M201.88,229.9c0-1.08,0.88-1.96,1.95-1.96c1.08,0,1.96,0.88,1.96,1.96c0,1.069-0.88,1.949-1.96,1.949
	C202.76,231.85,201.88,230.97,201.88,229.9"/>
<path fill="none" stroke="#000000" stroke-width="0.71" stroke-linecap="round" stroke-linejoin="round" stroke-miterlimit="10" d="
	M201.88,229.9c0-1.08,0.88-1.96,1.95-1.96c1.08,0,1.96,0.88,1.96,1.96c0,1.069-0.88,1.949-1.96,1.949
	C202.76,231.85,201.88,230.97,201.88,229.9"/>
<path d="M217.77,179.47c0-1.069,0.881-1.95,1.95-1.95c1.08,0,1.96,0.881,1.96,1.95c0,1.08-0.88,1.96-1.96,1.96
	C218.65,181.43,217.77,180.55,217.77,179.47"/>
<path fill="none" stroke="#000000" stroke-width="0.71" stroke-linecap="round" stroke-linejoin="round" stroke-miterlimit="10" d="
	M217.77,179.47c0-1.069,0.881-1.95,1.95-1.95c1.08,0,1.96,0.881,1.96,1.95c0,1.08-0.88,1.96-1.96,1.96
	C218.65,181.43,217.77,180.55,217.77,179.47"/>
<path d="M238.29,177.48c0-1.08,0.88-1.961,1.95-1.961c1.08,0,1.96,0.881,1.96,1.961c0,1.069-0.88,1.949-1.96,1.949
	C239.17,179.43,238.29,178.55,238.29,177.48"/>
<path fill="none" stroke="#000000" stroke-width="0.71" stroke-linecap="round" stroke-linejoin="round" stroke-miterlimit="10" d="
	M238.29,177.48c0-1.08,0.88-1.961,1.95-1.961c1.08,0,1.96,0.881,1.96,1.961c0,1.069-0.88,1.949-1.96,1.949
	C239.17,179.43,238.29,178.55,238.29,177.48"/>
<path d="M172.73,229.42c0-1.08,0.88-1.96,1.949-1.96c1.08,0,1.96,0.88,1.96,1.96c0,1.07-0.88,1.95-1.96,1.95
	C173.61,231.37,172.73,230.49,172.73,229.42"/>
<path fill="none" stroke="#000000" stroke-width="0.71" stroke-linecap="round" stroke-linejoin="round" stroke-miterlimit="10" d="
	M172.73,229.42c0-1.08,0.88-1.96,1.949-1.96c1.08,0,1.96,0.88,1.96,1.96c0,1.07-0.88,1.95-1.96,1.95
	C173.61,231.37,172.73,230.49,172.73,229.42"/>
<path d="M276.56,240.43c0-1.069,0.881-1.949,1.95-1.949c1.08,0,1.96,0.88,1.96,1.949c0,1.08-0.88,1.96-1.96,1.96
	C277.44,242.39,276.56,241.51,276.56,240.43"/>
<path fill="none" stroke="#000000" stroke-width="0.71" stroke-linecap="round" stroke-linejoin="round" stroke-miterlimit="10" d="
	M276.56,240.43c0-1.069,0.881-1.949,1.95-1.949c1.08,0,1.96,0.88,1.96,1.949c0,1.08-0.88,1.96-1.96,1.96
	C277.44,242.39,276.56,241.51,276.56,240.43"/>
<path d="M374.25,211.39c0-1.069,0.88-1.949,1.95-1.949c1.08,0,1.96,0.88,1.96,1.949c0,1.08-0.88,1.96-1.96,1.96
	C375.13,213.35,374.25,212.47,374.25,211.39"/>
<path fill="none" stroke="#000000" stroke-width="0.71" stroke-linecap="round" stroke-linejoin="round" stroke-miterlimit="10" d="
	M374.25,211.39c0-1.069,0.88-1.949,1.95-1.949c1.08,0,1.96,0.88,1.96,1.949c0,1.08-0.88,1.96-1.96,1.96
	C375.13,213.35,374.25,212.47,374.25,211.39"/>
<path d="M210.08,232.22c0-1.069,0.88-1.95,1.96-1.95c1.07,0,1.95,0.881,1.95,1.95c0,1.08-0.88,1.96-1.95,1.96
	C210.96,234.18,210.08,233.3,210.08,232.22"/>
<path fill="none" stroke="#000000" stroke-width="0.71" stroke-linecap="round" stroke-linejoin="round" stroke-miterlimit="10" d="
	M210.08,232.22c0-1.069,0.88-1.95,1.96-1.95c1.07,0,1.95,0.881,1.95,1.95c0,1.08-0.88,1.96-1.95,1.96
	C210.96,234.18,210.08,233.3,210.08,232.22"/>
<path d="M196.16,104.18c0-1.07,0.88-1.95,1.95-1.95c1.08,0,1.96,0.88,1.96,1.95c0,1.08-0.88,1.96-1.96,1.96
	C197.04,106.14,196.16,105.26,196.16,104.18"/>
<path fill="none" stroke="#000000" stroke-width="0.71" stroke-linecap="round" stroke-linejoin="round" stroke-miterlimit="10" d="
	M196.16,104.18c0-1.07,0.88-1.95,1.95-1.95c1.08,0,1.96,0.88,1.96,1.95c0,1.08-0.88,1.96-1.96,1.96
	C197.04,106.14,196.16,105.26,196.16,104.18"/>
<path d="M296.34,227.49c0-1.08,0.88-1.96,1.96-1.96c1.07,0,1.95,0.88,1.95,1.96c0,1.069-0.88,1.95-1.95,1.95
	C297.22,229.44,296.34,228.56,296.34,227.49"/>
<path fill="none" stroke="#000000" stroke-width="0.71" stroke-linecap="round" stroke-linejoin="round" stroke-miterlimit="10" d="
	M296.34,227.49c0-1.08,0.88-1.96,1.96-1.96c1.07,0,1.95,0.88,1.95,1.96c0,1.069-0.88,1.95-1.95,1.95
	C297.22,229.44,296.34,228.56,296.34,227.49"/>
<path d="M351.06,124.4c0-1.07,0.881-1.95,1.96-1.95c1.07,0,1.95,0.88,1.95,1.95c0,1.08-0.88,1.96-1.95,1.96
	C351.94,126.36,351.06,125.48,351.06,124.4"/>
<path fill="none" stroke="#000000" stroke-width="0.71" stroke-linecap="round" stroke-linejoin="round" stroke-miterlimit="10" d="
	M351.06,124.4c0-1.07,0.881-1.95,1.96-1.95c1.07,0,1.95,0.88,1.95,1.95c0,1.08-0.88,1.96-1.95,1.96
	C351.94,126.36,351.06,125.48,351.06,124.4"/>
<path d="M338.33,230.17c0-1.08,0.88-1.96,1.95-1.96c1.08,0,1.96,0.88,1.96,1.96c0,1.07-0.88,1.95-1.96,1.95
	C339.21,232.12,338.33,231.24,338.33,230.17"/>
<path fill="none" stroke="#000000" stroke-width="0.71" stroke-linecap="round" stroke-linejoin="round" stroke-miterlimit="10" d="
	M338.33,230.17c0-1.08,0.88-1.96,1.95-1.96c1.08,0,1.96,0.88,1.96,1.96c0,1.07-0.88,1.95-1.96,1.95
	C339.21,232.12,338.33,231.24,338.33,230.17"/>
<path d="M278.52,223.19c0-1.07,0.881-1.95,1.961-1.95c1.069,0,1.949,0.88,1.949,1.95c0,1.079-0.88,1.96-1.949,1.96
	C279.4,225.15,278.52,224.27,278.52,223.19"/>
<path fill="none" stroke="#000000" stroke-width="0.71" stroke-linecap="round" stroke-linejoin="round" stroke-miterlimit="10" d="
	M278.52,223.19c0-1.07,0.881-1.95,1.961-1.95c1.069,0,1.949,0.88,1.949,1.95c0,1.079-0.88,1.96-1.949,1.96
	C279.4,225.15,278.52,224.27,278.52,223.19"/>
<path d="M313.18,179.23c0-1.07,0.88-1.95,1.95-1.95c1.08,0,1.96,0.88,1.96,1.95c0,1.079-0.88,1.96-1.96,1.96
	C314.06,181.19,313.18,180.31,313.18,179.23"/>
<path fill="none" stroke="#000000" stroke-width="0.71" stroke-linecap="round" stroke-linejoin="round" stroke-miterlimit="10" d="
	M313.18,179.23c0-1.07,0.88-1.95,1.95-1.95c1.08,0,1.96,0.88,1.96,1.95c0,1.079-0.88,1.96-1.96,1.96
	C314.06,181.19,313.18,180.31,313.18,179.23"/>
<path d="M229.69,236.9c0-1.08,0.88-1.96,1.96-1.96c1.069,0,1.949,0.88,1.949,1.96c0,1.069-0.88,1.949-1.949,1.949
	C230.57,238.85,229.69,237.97,229.69,236.9"/>
<path fill="none" stroke="#000000" stroke-width="0.71" stroke-linecap="round" stroke-linejoin="round" stroke-miterlimit="10" d="
	M229.69,236.9c0-1.08,0.88-1.96,1.96-1.96c1.069,0,1.949,0.88,1.949,1.96c0,1.069-0.88,1.949-1.949,1.949
	C230.57,238.85,229.69,237.97,229.69,236.9"/>
<path d="M146.66,76.42c0-1.08,0.88-1.95,1.96-1.95c1.07,0,1.95,0.87,1.95,1.95c0,1.07-0.88,1.95-1.95,1.95
	C147.54,78.37,146.66,77.49,146.66,76.42"/>
<path fill="none" stroke="#000000" stroke-width="0.71" stroke-linecap="round" stroke-linejoin="round" stroke-miterlimit="10" d="
	M146.66,76.42c0-1.08,0.88-1.95,1.96-1.95c1.07,0,1.95,0.87,1.95,1.95c0,1.07-0.88,1.95-1.95,1.95
	C147.54,78.37,146.66,77.49,146.66,76.42"/>
<path d="M185.53,227.6c0-1.08,0.88-1.96,1.96-1.96c1.069,0,1.95,0.88,1.95,1.96c0,1.07-0.881,1.95-1.95,1.95
	C186.41,229.55,185.53,228.67,185.53,227.6"/>
<path fill="none" stroke="#000000" stroke-width="0.71" stroke-linecap="round" stroke-linejoin="round" stroke-miterlimit="10" d="
	M185.53,227.6c0-1.08,0.88-1.96,1.96-1.96c1.069,0,1.95,0.88,1.95,1.96c0,1.07-0.881,1.95-1.95,1.95
	C186.41,229.55,185.53,228.67,185.53,227.6"/>
<path d="M249.83,236.49c0-1.07,0.88-1.95,1.95-1.95c1.08,0,1.96,0.88,1.96,1.95c0,1.08-0.88,1.96-1.96,1.96
	C250.71,238.45,249.83,237.57,249.83,236.49"/>
<path fill="none" stroke="#000000" stroke-width="0.71" stroke-linecap="round" stroke-linejoin="round" stroke-miterlimit="10" d="
	M249.83,236.49c0-1.07,0.88-1.95,1.95-1.95c1.08,0,1.96,0.88,1.96,1.95c0,1.08-0.88,1.96-1.96,1.96
	C250.71,238.45,249.83,237.57,249.83,236.49"/>
<path d="M394.52,175.7c0-1.07,0.881-1.95,1.961-1.95c1.069,0,1.949,0.88,1.949,1.95c0,1.08-0.88,1.96-1.949,1.96
	C395.4,177.66,394.52,176.78,394.52,175.7"/>
<path fill="none" stroke="#000000" stroke-width="0.71" stroke-linecap="round" stroke-linejoin="round" stroke-miterlimit="10" d="
	M394.52,175.7c0-1.07,0.881-1.95,1.961-1.95c1.069,0,1.949,0.88,1.949,1.95c0,1.08-0.88,1.96-1.949,1.96
	C395.4,177.66,394.52,176.78,394.52,175.7"/>
<path d="M407.12,19.907c0-1.07,0.88-1.95,1.95-1.95c1.08,0,1.96,0.88,1.96,1.95c0,1.08-0.88,1.96-1.96,1.96
	C408,21.867,407.12,20.987,407.12,19.907"/>
<path fill="none" stroke="#000000" stroke-width="0.71" stroke-linecap="round" stroke-linejoin="round" stroke-miterlimit="10" d="
	M407.12,19.907c0-1.07,0.88-1.95,1.95-1.95c1.08,0,1.96,0.88,1.96,1.95c0,1.08-0.88,1.96-1.96,1.96
	C408,21.867,407.12,20.987,407.12,19.907"/>
<text transform="matrix(1 0 0 1 286.4004 82.29)" font-family="'Helvetica'" font-size="11">AK</text>
<text transform="matrix(1 0 0 1 350.2002 221.5898)" font-family="'Helvetica'" font-size="11">AL</text>
<text transform="matrix(1 0 0 1 344.3799 197.9199)" font-family="'Helvetica'" font-size="11">AR</text>
<text transform="matrix(1 0 0 1 256.6396 213.8301)" font-family="'Helvetica'" font-size="11">AZ</text>
<text transform="matrix(1 0 0 1 131.23 218.0801)" font-family="'Helvetica'" font-size="11">CA</text>
<text transform="matrix(1 0 0 1 225.75 260.2305)" font-family="'Helvetica'" font-size="11">CO</text>
<text transform="matrix(1 0 0 1 194.6396 210)" font-family="'Helvetica'" font-size="11">CT</text>
<text transform="matrix(1 0 0 1 77.0898 99.8999)" font-family="'Helvetica'" font-size="11">DC</text>
<text transform="matrix(1 0 0 1 193.79 141.0801)" font-family="'Helvetica'" font-size="11">DE</text>
<text transform="matrix(1 0 0 1 258.2041 275.1631)" font-family="'Helvetica'" font-size="11">FL</text>
<text transform="matrix(1 0 0 1 268.7197 235.1699)" font-family="'Helvetica'" font-size="11">GA</text>
<text transform="matrix(1 0 0 1 125.3901 103.9502)" font-family="'Helvetica'" font-size="11">HI</text>
<text transform="matrix(1 0 0 1 284.6504 225.0303)" font-family="'Helvetica'" font-size="11">IA</text>
<text transform="matrix(1 0 0 1 355.7803 161.3701)" font-family="'Helvetica'" font-size="11">ID</text>
<text transform="matrix(1 0 0 1 188.8096 242.8203)" font-family="'Helvetica'" font-size="11">IL</text>
<text transform="matrix(1 0 0 1 318.2598 228.71)" font-family="'Helvetica'" font-size="11">IN</text>
<text transform="matrix(1 0 0 1 308.1602 205.5703)" font-family="'Helvetica'" font-size="11">KS</text>
<text transform="matrix(1 0 0 1 354.8896 242.2998)" font-family="'Helvetica'" font-size="11">KY</text>
<text transform="matrix(1 0 0 1 320.4004 239.6396)" font-family="'Helvetica'" font-size="11">LA</text>
<text transform="matrix(1 0 0 1 134.5898 238.8496)" font-family="'Helvetica'" font-size="11">MA</text>
<text transform="matrix(1 0 0 1 156.29 247.1396)" font-family="'Helvetica'" font-size="11">MD</text>
<text transform="matrix(1 0 0 1 221.8301 195.1396)" font-family="'Helvetica'" font-size="11">ME</text>
<text transform="matrix(1 0 0 1 241.8496 252.8828)" font-family="'Helvetica'" font-size="11">MI</text>
<text transform="matrix(1 0 0 1 234.8496 227.6201)" font-family="'Helvetica'" font-size="11">MN</text>
<text transform="matrix(1 0 0 1 307.4502 252.7598)" font-family="'Helvetica'" font-size="11">MO</text>
<text transform="matrix(1 0 0 1 303.4404 222.79)" font-family="'Helvetica'" font-size="11">MS</text>
<text transform="matrix(1 0 0 1 313.6602 162.25)" font-family="'Helvetica'" font-size="11">MT</text>
<text transform="matrix(1 0 0 1 259.7998 252.5498)" font-family="'Helvetica'" font-size="11">NC</text>
<text transform="matrix(1 0 0 1 357.8398 101.2202)" font-family="'Helvetica'" font-size="11">ND</text>
<text transform="matrix(1 0 0 1 335.4502 167.6797)" font-family="'Helvetica'" font-size="11">NE</text>
<text transform="matrix(1 0 0 1 250.2803 172.7002)" font-family="'Helvetica'" font-size="11">NH</text>
<text transform="matrix(1 0 0 1 199.1104 226.8398)" font-family="'Helvetica'" font-size="11">NJ</text>
<text transform="matrix(1 0 0 1 201.1699 178.4199)" font-family="'Helvetica'" font-size="11">NM</text>
<text transform="matrix(1 0 0 1 226.5996 176.4199)" font-family="'Helvetica'" font-size="11">NV</text>
<text transform="matrix(1 0 0 1 165.04 226.3701)" font-family="'Helvetica'" font-size="11">NY</text>
<text transform="matrix(1 0 0 1 278.2598 250.3799)" font-family="'Helvetica'" font-size="11">OH</text>
<text transform="matrix(1 0 0 1 376.2598 209.3398)" font-family="'Helvetica'" font-size="11">OK</text>
<text transform="matrix(1 0 0 1 204.79 242.1699)" font-family="'Helvetica'" font-size="11">OR</text>
<text transform="matrix(1 0 0 1 269.0244 270.0332)"><tspan x="0" y="0" font-family="'Helvetica'" font-size="11" letter-spacing="-1">P</tspan><tspan x="4.532" y="0" font-family="'Helvetica'" font-size="11">A</tspan></text>
<text transform="matrix(1 0 0 1 187.6104 102.1299)" font-family="'Helvetica'" font-size="11">RI</text>
<text transform="matrix(1 0 0 1 292.6602 237.4404)" font-family="'Helvetica'" font-size="11">SC</text>
<text transform="matrix(1 0 0 1 338.3799 122.3501)" font-family="'Helvetica'" font-size="11">SD</text>
<text transform="matrix(1 0 0 1 330.9502 227.1201)" font-family="'Helvetica'" font-size="11">TN</text>
<text transform="matrix(1 0 0 1 272.4502 220.1396)" font-family="'Helvetica'" font-size="11">TX</text>
<text transform="matrix(1 0 0 1 299.7998 182.1797)" font-family="'Helvetica'" font-size="11">UT</text>
<text transform="matrix(1 0 0 1 222.75 247.8398)"><tspan x="0" y="0" font-family="'Helvetica'" font-size="11">V</tspan><tspan x="5.258" y="0" font-family="'Helvetica'" font-size="11">A</tspan></text>
<text transform="matrix(1 0 0 1 135.5898 74.3701)" font-family="'Helvetica'" font-size="11">VT</text>
<text transform="matrix(1 0 0 1 179.9004 224.5498)"><tspan x="0" y="0" font-family="'Helvetica'" font-size="11">W</tspan><tspan x="8.756" y="0" font-family="'Helvetica'" font-size="11">A</tspan></text>
<text transform="matrix(1 0 0 1 255.8936 266.0703)" font-family="'Helvetica'" font-size="11">WI</text>
<text transform="matrix(1 0 0 1 396.6201 172.6504)" font-family="'Helvetica'" font-size="11">WV</text>
<text transform="matrix(1 0 0 1 394.5195 30.8101)" font-family="'Helvetica'" font-size="11">WY</text>
<text transform="matrix(1 0 0 1 51.8901 329.8896)" fill="#646464" font-family="'Helvetica'" font-size="10">0%</text>
<text transform="matrix(1 0 0 1 41.6304 226.7598)" fill="#646464" font-family="'Helvetica'" font-size="10">100%</text>
<text transform="matrix(1 0 0 1 41.6304 125.6299)" fill="#646464" font-family="'Helvetica'" font-size="10">200%</text>
<text transform="matrix(1 0 0 1 41.6304 23.5)" fill="#646464" font-family="'Helvetica'" font-size="10">300%</text>
<text transform="matrix(1 0 0 1 62.6499 353.7305)" fill="#646464" font-family="'Helvetica'" font-size="10">+50%</text>
<text transform="matrix(1 0 0 1 239.7402 353.7305)" fill="#646464" font-family="'Helvetica'" font-size="10">Split</text>
<text transform="matrix(1 0 0 1 412.3496 353.7305)" fill="#646464" font-family="'Helvetica'" font-size="10">+50%</text>
<text transform="matrix(1 0 0 1 131.3799 332.25)" fill="#646464" font-family="'Helvetica'" font-size="18">Democrat</text>
<text transform="matrix(-6.123234e-017 -1 1 -6.123234e-017 18.9805 223.5859)"><tspan x="0" y="0" fill="#646464" font-family="'Helvetica'" font-size="18" letter-spacing="-1">V</tspan><tspan x="8.604" y="0" fill="#646464" font-family="'Helvetica'" font-size="18">oting Power</tspan><tspan x="-4.372" y="9.6" fill="#646464" font-family="'Helvetica'" font-size="8">Electoral College Votes per Voter</tspan></text>
<text transform="matrix(1 0 0 1 284.7197 332.25)" fill="#646464" font-family="'Helvetica'" font-size="18">Republican</text>
<g>
	<g>
		<line fill="none" stroke="#C8C8C8" stroke-width="2" stroke-miterlimit="10" x1="106.207" y1="326.967" x2="127.5" y2="326.967"/>
		<g>
			<path fill="#C8C8C8" d="M100.172,326.967c2.84,1.054,6.363,2.852,8.547,4.756l-1.72-4.756l1.72-4.755
				C106.535,324.116,103.012,325.914,100.172,326.967z"/>
		</g>
	</g>
</g>
<g>
	<g>
		
			<line fill="none" stroke="#C8C8C8" stroke-width="2" stroke-miterlimit="10" x1="391.839" y1="326.967" x2="370.546" y2="326.967"/>
		<g>
			<path fill="#C8C8C8" d="M397.874,326.967c-2.84-1.054-6.363-2.852-8.548-4.756l1.721,4.756l-1.721,4.755
				C391.511,329.817,395.034,328.02,397.874,326.967z"/>
		</g>
	</g>
</g>
<g>
	<g>
		<line fill="none" stroke="#000000" stroke-miterlimit="10" x1="64.436" y1="96.945" x2="75.082" y2="96.945"/>
		<g>
			<path d="M61.418,96.945c1.42,0.527,3.182,1.426,4.273,2.378l-0.86-2.378l0.86-2.377C64.6,95.52,62.838,96.419,61.418,96.945z"/>
		</g>
	</g>
</g>
<text transform="matrix(1 0 0 1 437.0605 140.8945)"><tspan x="0" y="0" fill="#646464" font-family="'Helvetica'" font-size="10">Above</tspan><tspan x="-3.755" y="12" fill="#646464" font-family="'Helvetica'" font-size="10">Average</tspan><tspan x="0.335" y="24" fill="#646464" font-family="'Helvetica'" font-size="10">Power</tspan></text>
<text transform="matrix(1 0 0 1 437.7998 257.8945)"><tspan x="0" y="0" fill="#646464" font-family="'Helvetica'" font-size="10">Below</tspan><tspan x="-4.494" y="12" fill="#646464" font-family="'Helvetica'" font-size="10">Average</tspan><tspan x="-0.404" y="24" fill="#646464" font-family="'Helvetica'" font-size="10">Power</tspan></text>
<g>
	<g>
		<line fill="none" stroke="#C8C8C8" stroke-width="2" stroke-miterlimit="10" x1="450.62" y1="308.285" x2="450.62" y2="286.992"/>
		<g>
			<path fill="#C8C8C8" d="M450.62,314.32c1.054-2.84,2.852-6.363,4.756-8.547l-4.756,1.72l-4.755-1.72
				C447.77,307.957,449.567,311.48,450.62,314.32z"/>
		</g>
	</g>
</g>
<g>
	<g>
		<line fill="none" stroke="#C8C8C8" stroke-width="2" stroke-miterlimit="10" x1="450.62" y1="107.653" x2="450.62" y2="128.946"/>
		<g>
			<path fill="#C8C8C8" d="M450.62,101.618c-1.054,2.84-2.852,6.363-4.756,8.547l4.756-1.72l4.755,1.72
				C453.471,107.981,451.673,104.458,450.62,101.618z"/>
		</g>
	</g>
</g>
<line fill="none" stroke="#AAAAAA" stroke-width="0.5" stroke-miterlimit="10" x1="237.13" y1="251.55" x2="241.04" y2="235.17"/>
<path fill="none" stroke="#000000" stroke-width="0.71" stroke-linecap="round" stroke-linejoin="round" stroke-miterlimit="10" d="
	M239.16,234.79c0-1.08,0.88-1.96,1.96-1.96c1.07,0,1.95,0.88,1.95,1.96c0,1.07-0.88,1.95-1.95,1.95
	C240.04,236.74,239.16,235.86,239.16,234.79"/>
<path d="M239.16,234.79c0-1.08,0.88-1.96,1.96-1.96c1.07,0,1.95,0.88,1.95,1.96c0,1.07-0.88,1.95-1.95,1.95
	C240.04,236.74,239.16,235.86,239.16,234.79"/>
<line fill="none" stroke="#AAAAAA" stroke-width="0.5" stroke-miterlimit="10" x1="258.204" y1="257.207" x2="252.87" y2="236.17"/>
<path fill="none" stroke="#000000" stroke-width="0.71" stroke-linecap="round" stroke-linejoin="round" stroke-miterlimit="10" d="
	M247.51,242.6c0-1.069,0.88-1.949,1.96-1.949c1.07,0,1.95,0.88,1.95,1.949c0,1.08-0.88,1.96-1.95,1.96
	C248.39,244.56,247.51,243.68,247.51,242.6"/>
<path d="M250.91,238.12c0-1.07,0.88-1.95,1.96-1.95c1.07,0,1.95,0.88,1.95,1.95c0,1.08-0.88,1.96-1.95,1.96
	C251.79,240.08,250.91,239.2,250.91,238.12"/>
<path fill="none" stroke="#000000" stroke-width="0.71" stroke-linecap="round" stroke-linejoin="round" stroke-miterlimit="10" d="
	M250.91,238.12c0-1.07,0.88-1.95,1.96-1.95c1.07,0,1.95,0.88,1.95,1.95c0,1.08-0.88,1.96-1.95,1.96
	C251.79,240.08,250.91,239.2,250.91,238.12"/>
<path d="M247.51,242.6c0-1.069,0.88-1.949,1.96-1.949c1.07,0,1.95,0.88,1.95,1.949c0,1.08-0.88,1.96-1.95,1.96
	C248.39,244.56,247.51,243.68,247.51,242.6"/>
<g>
	<g>
		<line fill="none" stroke="#000000" stroke-miterlimit="10" x1="409.075" y1="7.311" x2="409.075" y2="17.957"/>
		<g>
			<path d="M409.075,4.293c-0.527,1.42-1.426,3.182-2.378,4.273l2.378-0.86l2.377,0.86C410.501,7.475,409.602,5.713,409.075,4.293z"
				/>
		</g>
	</g>
</g>
<text transform="matrix(1 0 0 1 414.3125 210.1699)" fill="#646464" font-family="'Helvetica'" font-size="8">National Average</text>
<g>
	<g>
		<path fill="none" stroke="#C8C8C8" stroke-miterlimit="10" d="M436.712,223.672c4.512-1.296,7.808-5.45,7.808-10.382"/>
		<g>
			<path fill="#C8C8C8" d="M433.72,224.091c1.483,0.306,3.361,0.927,4.585,1.702l-1.211-2.22l0.489-2.48
				C436.648,222.199,435.043,223.355,433.72,224.091z"/>
		</g>
	</g>
</g>
</svg>
